<svg xmlns="http://www.w3.org/2000/svg" xmlns:xlink="http://www.w3.org/1999/xlink" width="940" zoomAndPan="magnify" viewBox="0 0 705 149.999998" height="200" preserveAspectRatio="xMidYMid meet" version="1.0"><defs><g/><clipPath id="4ea23c643d"><rect x="0" width="676" y="0" height="80"/></clipPath></defs><g transform="matrix(1, 0, 0, 1, 19, 35)"><g clip-path="url(#4ea23c643d)"><g fill="#000000" fill-opacity="1"><g transform="translate(0.327604, 66.783364)"><g><path d="M 46.984375 -0.125 L 47.25 -45.34375 L 2.96875 -46.796875 L 1.3125 -0.125 L 15.59375 0 L 16.328125 -20.265625 L 34.421875 -19.875 L 34.546875 -0.0625 Z M 34.484375 -37.3125 L 34.75 -28.828125 L 15.796875 -29.484375 L 16 -38.046875 Z M 34.484375 -37.3125 "/></g></g></g><g fill="#000000" fill-opacity="1"><g transform="translate(57.451763, 66.783364)"><g><path d="M 1.3125 -45.34375 L 3.359375 0 L 42.390625 -0.125 L 41.203125 -14.875 L 14.609375 -14.484375 L 14.546875 -33.359375 L 41.203125 -33.828125 L 41.59375 -45.34375 Z M 1.3125 -45.34375 "/></g></g></g><g fill="#000000" fill-opacity="1"><g transform="translate(109.706022, 66.783364)"><g><path d="M 14.21875 -26.0625 L 13.5625 -43.890625 L 1.3125 -43.5625 L 1.3125 0.203125 L 16.0625 0.203125 L 16.0625 -19.078125 L 35.40625 -19.078125 L 35.671875 -0.453125 L 50.546875 -0.203125 L 50.28125 -43.890625 L 35.40625 -43.5625 L 35.40625 -25.671875 Z M 14.21875 -26.0625 "/></g></g></g><g fill="#000000" fill-opacity="1"><g transform="translate(170.120662, 66.783364)"><g><path d="M 2.171875 -46.53125 L 1.3125 -0.0625 L 15.265625 -0.0625 L 15.265625 -46.59375 Z M 2.171875 -46.53125 "/></g></g></g><g fill="#000000" fill-opacity="1"><g transform="translate(195.261386, 66.783364)"><g><path d="M 14.875 -25.671875 L 14.875 -33.109375 L 46.984375 -32.78125 L 46.984375 -44.359375 L 1.3125 -45.015625 L 1.78125 -0.125 L 45.734375 0.125 L 45.34375 -10.734375 L 15.203125 -11.515625 L 15.328125 -19.484375 L 40.078125 -19.078125 L 40.46875 -25.203125 Z M 14.875 -25.671875 "/></g></g></g><g fill="#000000" fill-opacity="1"><g transform="translate(252.122305, 66.783364)"><g><path d="M 26.984375 -14.9375 L 15.46875 -44.421875 L 1.3125 -43.96875 L 21.25 -0.0625 L 34.625 0 L 51.46875 -42.3125 L 38.171875 -43.109375 Z M 26.984375 -14.9375 "/></g></g></g><g fill="#000000" fill-opacity="1"><g transform="translate(313.458291, 66.783364)"><g><path d="M 14.875 -25.671875 L 14.875 -33.109375 L 46.984375 -32.78125 L 46.984375 -44.359375 L 1.3125 -45.015625 L 1.78125 -0.125 L 45.734375 0.125 L 45.34375 -10.734375 L 15.203125 -11.515625 L 15.328125 -19.484375 L 40.078125 -19.078125 L 40.46875 -25.203125 Z M 14.875 -25.671875 "/></g></g></g><g fill="#000000" fill-opacity="1"><g transform="translate(370.319194, 66.783364)"><g><path d="M 1.3125 -43.640625 L 1.96875 0 L 14.484375 -0.390625 L 14.9375 -34.21875 L 30.53125 -33.765625 L 30.140625 0 L 38.703125 -0.390625 L 37.84375 -33.109375 L 55.671875 -31.984375 L 55.671875 -0.390625 L 68.4375 0.390625 L 67.265625 -41.46875 Z M 1.3125 -43.640625 "/></g></g></g><g fill="#000000" fill-opacity="1"><g transform="translate(448.633999, 66.783364)"><g><path d="M 14.875 -25.671875 L 14.875 -33.109375 L 46.984375 -32.78125 L 46.984375 -44.359375 L 1.3125 -45.015625 L 1.78125 -0.125 L 45.734375 0.125 L 45.34375 -10.734375 L 15.203125 -11.515625 L 15.328125 -19.484375 L 40.078125 -19.078125 L 40.46875 -25.203125 Z M 14.875 -25.671875 "/></g></g></g><g fill="#000000" fill-opacity="1"><g transform="translate(505.494935, 66.783364)"><g><path d="M 49.890625 0.203125 L 50.546875 -43.5 L 38.296875 -43.5 L 38.703125 -18.953125 L 20.140625 -43.234375 L 2.625 -43.890625 L 1.3125 -0.125 L 15.53125 0.203125 L 16.515625 -29.9375 L 37.640625 -0.125 Z M 49.890625 0.203125 "/></g></g></g><g fill="#000000" fill-opacity="1"><g transform="translate(565.909575, 66.783364)"><g><path d="M 44.8125 -30.9375 L 45.46875 -43.765625 L 1.3125 -44.296875 L 1.3125 -32.90625 L 16.90625 -32.3125 L 17.703125 0.265625 L 30.609375 -0.125 L 29.609375 -31.859375 Z M 44.8125 -30.9375 "/></g></g></g><g fill="#000000" fill-opacity="1"><g transform="translate(621.256881, 66.783364)"><g><path d="M 1.3125 -43.109375 L 2.765625 -15 L 32.1875 -16.25 L 32.25 -9.8125 L 3.15625 -8.8125 L 3.75 0.328125 L 44.09375 -0.453125 L 42.640625 -27.4375 L 14.15625 -26.0625 L 13.6875 -32.25 L 42.578125 -33.828125 L 41.53125 -45.671875 Z M 1.3125 -43.109375 "/></g></g></g></g></g></svg>